<?xml version="1.0" standalone="no"?>
<!DOCTYPE svg PUBLIC "-//W3C//DTD SVG 20010904//EN"
 "http://www.w3.org/TR/2001/REC-SVG-20010904/DTD/svg10.dtd">
<svg version="1.0" xmlns="http://www.w3.org/2000/svg"
 width="683.000000pt" height="505.000000pt" viewBox="0 0 683.000000 505.000000"
 preserveAspectRatio="xMidYMid meet">

<g transform="translate(0.000000,505.000000) scale(0.100000,-0.100000)"
fill="#000000" stroke="none">
<path d="M1 2958 l1 -2093 125 595 c68 327 129 612 134 633 l10 38 747 -3 747
-3 97 -27 c136 -37 225 -86 298 -165 106 -113 144 -213 144 -378 -1 -93 -5
-122 -28 -190 -74 -217 -249 -396 -453 -464 -174 -58 -357 -70 -1155 -78
l-668 -6 0 -409 0 -408 760 0 c418 0 760 4 760 8 0 5 46 12 103 16 326 21 701
109 910 214 310 157 532 389 684 717 104 225 142 379 150 611 6 170 -2 243
-39 369 -88 303 -345 556 -677 669 -36 13 -66 27 -68 32 -2 5 27 20 64 33 108
39 292 134 378 196 245 175 394 405 455 704 28 139 28 373 0 512 -67 329 -248
586 -518 736 -37 20 -73 43 -79 49 -38 37 -298 117 -468 144 -221 35 -377 40
-1407 40 l-1008 0 1 -2092z m1994 1233 c218 -25 381 -134 446 -298 20 -49 23
-77 24 -183 0 -137 -8 -172 -73 -310 -66 -139 -206 -252 -382 -308 -180 -58
-351 -71 -1014 -79 -537 -6 -548 -6 -543 13 5 17 84 395 198 944 22 107 42
203 45 213 5 16 43 17 612 17 334 0 643 -4 687 -9z"/>
<path d="M5492 5039 c767 -55 1217 -385 1323 -973 12 -62 13 -4 14 457 l1 527
-722 -1 c-436 -1 -681 -5 -616 -10z"/>
<path d="M4026 4173 c-3 -10 -42 -193 -86 -408 -45 -214 -96 -464 -115 -555
-19 -91 -35 -172 -35 -179 0 -12 85 -13 533 -8 553 7 690 14 868 47 199 37
307 88 415 196 80 79 141 189 170 304 22 88 15 233 -16 313 -62 164 -229 274
-450 298 -47 5 -354 9 -682 9 -560 0 -597 -1 -602 -17z"/>
<path d="M6820 3631 c0 -47 -56 -250 -89 -325 -127 -280 -372 -495 -729 -636
l-84 -33 74 -27 c84 -31 181 -79 254 -125 65 -42 194 -152 202 -174 3 -9 27
-42 52 -73 62 -77 133 -214 166 -323 27 -86 28 -100 29 -295 0 -179 -3 -218
-23 -309 -90 -401 -339 -781 -648 -989 -241 -162 -594 -266 -1040 -306 -136
-12 -62 -14 849 -15 l997 -1 0 1830 c0 1007 -2 1830 -5 1830 -3 0 -5 -13 -5
-29z"/>
<path d="M3591 2093 c-5 -21 -17 -75 -25 -121 -9 -45 -65 -319 -126 -607 -60
-289 -110 -530 -110 -535 0 -22 1485 -4 1499 18 3 5 38 12 78 16 118 12 232
44 333 94 166 83 293 231 356 417 22 66 27 98 27 180 1 152 -34 245 -142 372
-72 85 -148 127 -306 170 l-100 28 -737 3 -737 3 -10 -38z"/>
</g>
</svg>

